<svg data-v-423bf9ae="" xmlns="http://www.w3.org/2000/svg" viewBox="0 0 271.31231601992414 192" class="iconAboveSlogan"><!----><!----><!----><g data-v-423bf9ae="" id="b01844a8-ade1-4042-8bc7-94f81dec9ea3" fill="black" transform="matrix(6.1037640351658435,0,0,6.1037640351658435,-3.8453738559781527,81.02645053234042)"><path d="M10.44 8.85L5.49 8.85L5.49 9.70L9.35 9.70C9.07 10.53 8.58 11.19 7.88 11.69C7.18 12.18 6.39 12.43 5.53 12.43C4.44 12.43 3.52 12.05 2.75 11.27C1.99 10.50 1.61 9.58 1.61 8.50C1.61 7.42 1.99 6.49 2.76 5.73C3.52 4.96 4.45 4.58 5.53 4.58C6.35 4.58 7.09 4.81 7.75 5.27C8.41 5.73 8.90 6.34 9.20 7.11L10.23 7.11C9.92 6.06 9.32 5.21 8.45 4.57C7.58 3.92 6.57 3.60 5.43 3.60C4.83 3.60 4.22 3.73 3.63 3.98C3.03 4.24 2.51 4.59 2.06 5.03C1.62 5.48 1.27 6.00 1.02 6.59C0.76 7.19 0.63 7.83 0.63 8.51C0.63 9.18 0.76 9.82 1.02 10.42C1.27 11.01 1.62 11.53 2.06 11.98C2.51 12.42 3.03 12.77 3.63 13.03C4.22 13.28 4.86 13.41 5.53 13.41C6.68 13.41 7.72 13.04 8.65 12.29C9.58 11.55 10.14 10.59 10.35 9.44ZM15.29 8.41L15.29 7.14C15.09 7.06 14.89 7.01 14.67 7.01C13.98 7.01 13.47 7.40 13.15 8.16L13.10 8.41L13.10 7.14L12.12 7.14L12.12 13.30L13.10 13.30L13.10 10.22C13.10 9.71 13.22 9.26 13.45 8.86C13.58 8.64 13.73 8.47 13.91 8.32C14.09 8.18 14.31 8.11 14.57 8.11C14.82 8.11 15.06 8.21 15.29 8.41ZM20.73 12.24L20.73 13.30L21.71 13.30L21.71 7.14L20.73 7.14L20.73 9.72C20.73 10.57 20.57 11.24 20.26 11.72C19.94 12.21 19.40 12.45 18.63 12.45C18.21 12.45 17.91 12.30 17.73 12.02C17.55 11.73 17.46 11.39 17.46 10.99L17.46 7.14L16.48 7.14L16.48 10.99C16.48 11.70 16.67 12.29 17.06 12.74C17.45 13.20 17.99 13.43 18.68 13.43C19.59 13.43 20.27 13.03 20.73 12.24ZM20.73 5.00C20.61 4.88 20.46 4.82 20.29 4.82C20.11 4.82 19.96 4.88 19.84 5.00C19.73 5.12 19.67 5.27 19.67 5.44C19.67 5.61 19.73 5.76 19.84 5.88C19.96 6.00 20.11 6.06 20.29 6.06C20.46 6.06 20.61 6.00 20.73 5.88C20.86 5.76 20.92 5.61 20.92 5.44C20.92 5.27 20.86 5.12 20.73 5.00ZM18.19 5.00C18.06 4.88 17.92 4.82 17.74 4.82C17.56 4.82 17.41 4.88 17.30 5.00C17.18 5.12 17.12 5.27 17.12 5.44C17.12 5.61 17.18 5.76 17.30 5.88C17.41 6.00 17.56 6.06 17.74 6.06C17.92 6.06 18.06 6.00 18.19 5.88C18.31 5.76 18.37 5.61 18.37 5.44C18.37 5.27 18.31 5.12 18.19 5.00ZM31.42 13.27L32.40 13.27L32.40 9.42C32.40 8.73 32.23 8.16 31.89 7.71C31.71 7.49 31.50 7.31 31.23 7.18C30.97 7.04 30.63 6.97 30.20 6.97C29.77 6.97 29.39 7.09 29.07 7.32C28.78 7.53 28.54 7.81 28.35 8.14C28.28 7.99 28.19 7.85 28.09 7.71C27.92 7.49 27.70 7.31 27.44 7.18C27.18 7.04 26.83 6.97 26.40 6.97C25.97 6.97 25.60 7.09 25.28 7.32C25.00 7.52 24.77 7.78 24.58 8.09L24.58 7.11L23.60 7.11L23.60 13.27L24.58 13.27L24.58 10.12C24.64 9.62 24.76 9.20 24.96 8.85C25.11 8.59 25.31 8.37 25.56 8.20C25.82 8.04 26.09 7.95 26.38 7.95C26.67 7.95 26.88 8.00 27.02 8.08C27.42 8.34 27.62 8.78 27.62 9.42L27.62 13.27L28.60 13.27L28.60 9.42C28.60 9.34 28.60 9.26 28.60 9.19C28.64 9.07 28.70 8.95 28.76 8.85C28.91 8.59 29.11 8.37 29.36 8.20C29.61 8.04 29.88 7.95 30.17 7.95C30.46 7.95 30.67 8.00 30.81 8.08C31.22 8.34 31.42 8.78 31.42 9.42ZM40.31 10.08C40.31 9.23 39.98 8.50 39.33 7.88C38.70 7.28 37.95 6.97 37.09 6.97C36.20 6.97 35.44 7.29 34.81 7.92C34.18 8.55 33.87 9.31 33.87 10.19C33.87 11.08 34.18 11.84 34.81 12.46C35.11 12.75 35.45 12.98 35.83 13.15C36.22 13.31 36.69 13.40 37.23 13.40C37.78 13.40 38.32 13.23 38.84 12.89C39.37 12.55 39.76 12.08 40.03 11.49L38.91 11.49C38.69 11.78 38.42 12.01 38.10 12.17C37.78 12.34 37.44 12.42 37.09 12.42C36.56 12.42 36.08 12.25 35.66 11.90C35.24 11.56 34.98 11.13 34.89 10.60L40.31 10.60ZM39.27 9.76L34.90 9.76C34.96 9.50 35.06 9.26 35.20 9.04C35.66 8.31 36.29 7.95 37.09 7.95C37.61 7.95 38.07 8.12 38.48 8.46C38.89 8.80 39.16 9.23 39.27 9.76ZM45.08 8.41L45.08 7.14C44.88 7.06 44.68 7.01 44.46 7.01C43.77 7.01 43.27 7.40 42.94 8.16L42.90 8.41L42.90 7.14L41.92 7.14L41.92 13.30L42.90 13.30L42.90 10.22C42.90 9.71 43.01 9.26 43.25 8.86C43.37 8.64 43.52 8.47 43.70 8.32C43.88 8.18 44.10 8.11 44.36 8.11C44.61 8.11 44.85 8.21 45.08 8.41Z"></path></g><!----><g data-v-423bf9ae="" id="942f71c3-8fdc-4b0d-a02a-2e4392a38374" transform="matrix(1.423285344853641,0,0,1.423285344853641,85.41113325147802,-5.855266081718256)" stroke="none" fill="black"><path d="M22.22 21.307c-.335-2.701 1.78-5.13 4.53-5.13h1.19c.15-.17.27-.31.37-.41.03-.03.05-.06.08-.08.06-.08.1-.11.1-.11a3.65 3.65 0 0 0 .22.6h16.53c.94 0 1.86.29 2.62.84.94-1.07 1.53-2.27 1.9-3.38.72-2.18.61-4.04.61-4.04-5.71 1.81-7.31-.89-8.97-2.53-6.69-6.62-12.12 1.09-12.12 1.09-9.35 2.64-8.52 10.62-6.7 16.04l-.36-2.89zM62.34 58.157c-.69-4.21-3.23-7.92-6.97-10.2-.71-.43-1.47-.87-2.32-1.33v7.17c1.44.07 2.59 1.25 2.59 2.69v6.11c2.1-1.05 4.24-2.29 6.37-3.69.25-.17.38-.46.33-.75zM18.96 46.627c-.68.36-1.44.79-2.33 1.33-3.74 2.27-6.28 5.99-6.97 10.2-.05.28.08.57.32.74 2.19 1.5 4.29 2.76 6.39 3.82v-6.23c0-1.44 1.15-2.62 2.59-2.69v-7.17zM51.55 45.847c-1.63-.82-3.05-1.47-4.09-1.91v9.85h4.09v-7.94z"></path><path d="M52.92 55.287H19.09c-.68 0-1.22.53-1.22 1.2v6.96c5.457 2.624 11.602 4.17 17.88 4.17 6.423 0 12.98-1.685 18.39-4.29v-6.84c0-.66-.55-1.2-1.22-1.2zM45.86 40.737l.33-2.655a13.485 13.485 0 0 0 2.087-6.31c.873-.586 1.47-1.7 1.47-2.995 0-1.546-.846-2.846-1.999-3.276l.542-4.374c.22-1.83-1.21-3.45-3.05-3.45H26.75c-1.84 0-3.27 1.62-3.04 3.45l.527 4.26c-1.378.231-2.452 1.655-2.452 3.39 0 1.51.813 2.778 1.933 3.241.15 2.238.872 4.396 2.114 6.289l.298 2.43c.1.84.56 1.57 1.2 2.05-.33.13-.76.3-1.29.52v10.48h19.92v-10.48c-.53-.22-.96-.39-1.29-.52a3.05 3.05 0 0 0 1.19-2.05zM36 50.147c-3.78 0-6.87-3-6.96-6.73.05 0 .09.01.14.01h13.64c.05 0 .09-.01.14-.01-.09 3.73-3.18 6.73-6.96 6.73zm7.44-13.6H28.55l-1.6-10.86h18.09l-1.6 10.86z"></path><path d="M24.54 43.937c-1.42.61-2.79 1.25-4.08 1.9v7.95h4.08v-9.85zM48.93 18.057c.68.93.99 2.09.85 3.25l-.64 5.16c1.66-3.84 1.59-7.65 1.17-10.34-.39.7-.85 1.35-1.38 1.93z"></path></g><!----><g data-v-423bf9ae="" id="e205f150-33ad-4a54-80f6-19e69d05a3ed" fill="black" transform="matrix(1.2425001567164775,0,0,1.2425001567164775,33.90383125447174,196.7231170794641)"><path d="M4.52 3.78L4.52 3.78Q5.96 3.78 6.81 4.50L6.81 4.50L6.81 4.50Q7.66 5.22 7.66 6.48L7.66 6.48L7.66 6.48Q7.66 7.74 6.81 8.47L6.81 8.47L6.81 8.47Q5.96 9.20 4.52 9.20L4.52 9.20L2.16 9.20L2.16 13.02L1.46 13.02L1.46 3.78L4.52 3.78ZM4.44 8.54L4.44 8.54Q5.64 8.54 6.28 8.01L6.28 8.01L6.28 8.01Q6.92 7.48 6.92 6.48L6.92 6.48L6.92 6.48Q6.92 5.50 6.28 4.96L6.28 4.96L6.28 4.96Q5.64 4.42 4.44 4.42L4.44 4.42L2.16 4.42L2.16 8.54L4.44 8.54ZM17.11 2.80L17.11 11.33L17.11 11.33Q17.11 11.97 17.31 12.24L17.31 12.24L17.31 12.24Q17.51 12.50 17.99 12.50L17.99 12.50L17.99 12.50Q18.27 12.50 18.47 12.46L18.47 12.46L18.47 12.46Q18.66 12.42 18.91 12.31L18.91 12.31L18.82 12.98L18.82 12.98Q18.42 13.16 17.89 13.16L17.89 13.16L17.89 13.16Q17.14 13.16 16.77 12.73L16.77 12.73L16.77 12.73Q16.41 12.31 16.41 11.40L16.41 11.40L16.41 2.80L17.11 2.80ZM32.93 12.56L32.93 12.56Q33.28 12.56 33.47 12.46L33.47 12.46L33.43 13.02L33.43 13.02Q33.18 13.16 32.75 13.16L32.75 13.16L32.75 13.16Q32.26 13.16 31.95 12.89L31.95 12.89L31.95 12.89Q31.64 12.63 31.60 11.97L31.60 11.97L31.60 11.97Q31.28 12.53 30.56 12.84L30.56 12.84L30.56 12.84Q29.85 13.16 29.06 13.16L29.06 13.16L29.06 13.16Q28.03 13.16 27.41 12.70L27.41 12.70L27.41 12.70Q26.78 12.24 26.78 11.38L26.78 11.38L26.78 11.38Q26.78 9.76 29.44 9.28L29.44 9.28L31.58 8.90L31.58 8.29L31.58 8.29Q31.58 7.45 31.09 6.97L31.09 6.97L31.09 6.97Q30.59 6.50 29.68 6.50L29.68 6.50L29.68 6.50Q28.01 6.50 27.44 7.98L27.44 7.98L26.91 7.59L26.91 7.59Q27.22 6.76 27.93 6.32L27.93 6.32L27.93 6.32Q28.64 5.88 29.68 5.88L29.68 5.88L29.68 5.88Q30.90 5.88 31.59 6.47L31.59 6.47L31.59 6.47Q32.28 7.07 32.28 8.20L32.28 8.20L32.28 11.82L32.28 11.82Q32.28 12.56 32.93 12.56L32.93 12.56ZM29.13 12.54L29.13 12.54Q29.72 12.54 30.28 12.34L30.28 12.34L30.28 12.34Q30.84 12.14 31.21 11.74L31.21 11.74L31.21 11.74Q31.58 11.34 31.58 10.78L31.58 10.78L31.58 9.48L29.67 9.83L29.67 9.83Q28.53 10.04 28.01 10.42L28.01 10.42L28.01 10.42Q27.50 10.79 27.50 11.38L27.50 11.38L27.50 11.38Q27.50 11.94 27.93 12.24L27.93 12.24L27.93 12.24Q28.36 12.54 29.13 12.54L29.13 12.54ZM45.18 5.88L45.18 5.88Q46.38 5.88 47.12 6.55L47.12 6.55L47.12 6.55Q47.85 7.22 47.85 8.48L47.85 8.48L47.85 13.02L47.15 13.02L47.15 8.71L47.15 8.71Q47.15 7.59 46.61 7.04L46.61 7.04L46.61 7.04Q46.06 6.50 45.11 6.50L45.11 6.50L45.11 6.50Q44.44 6.50 43.86 6.80L43.86 6.80L43.86 6.80Q43.29 7.11 42.95 7.70L42.95 7.70L42.95 7.70Q42.60 8.29 42.60 9.07L42.60 9.07L42.60 13.02L41.90 13.02L41.90 6.02L42.53 6.02L42.56 7.43L42.56 7.43Q42.90 6.68 43.59 6.28L43.59 6.28L43.59 6.28Q44.28 5.88 45.18 5.88L45.18 5.88ZM62.38 6.02L63.08 6.02L63.08 13.02L62.45 13.02L62.43 11.63L62.43 11.63Q62.08 12.38 61.38 12.77L61.38 12.77L61.38 12.77Q60.68 13.16 59.72 13.16L59.72 13.16L59.72 13.16Q58.58 13.16 57.89 12.52L57.89 12.52L57.89 12.52Q57.20 11.89 57.20 10.64L57.20 10.64L57.20 6.02L57.90 6.02L57.90 10.47L57.90 10.47Q57.90 12.54 59.84 12.54L59.84 12.54L59.84 12.54Q60.61 12.54 61.19 12.21L61.19 12.21L61.19 12.21Q61.77 11.87 62.08 11.30L62.08 11.30L62.08 11.30Q62.38 10.72 62.38 10.04L62.38 10.04L62.38 6.02ZM75.85 5.88L75.85 5.88Q77.06 5.88 77.79 6.55L77.79 6.55L77.79 6.55Q78.53 7.22 78.53 8.48L78.53 8.48L78.53 13.02L77.83 13.02L77.83 8.71L77.83 8.71Q77.83 7.59 77.28 7.04L77.28 7.04L77.28 7.04Q76.73 6.50 75.78 6.50L75.78 6.50L75.78 6.50Q75.11 6.50 74.54 6.80L74.54 6.80L74.54 6.80Q73.96 7.11 73.62 7.70L73.62 7.70L73.62 7.70Q73.28 8.29 73.28 9.07L73.28 9.07L73.28 13.02L72.58 13.02L72.58 6.02L73.21 6.02L73.23 7.43L73.23 7.43Q73.57 6.68 74.26 6.28L74.26 6.28L74.26 6.28Q74.96 5.88 75.85 5.88L75.85 5.88ZM91.53 12.31L91.53 12.31Q92.58 12.31 93.18 12.74L93.18 12.74L93.18 12.74Q93.79 13.17 93.79 13.90L93.79 13.90L93.79 13.90Q93.79 14.53 93.36 15.02L93.36 15.02L93.36 15.02Q92.93 15.50 92.18 15.76L92.18 15.76L92.18 15.76Q91.42 16.03 90.45 16.03L90.45 16.03L90.45 16.03Q88.87 16.03 88.03 15.52L88.03 15.52L88.03 15.52Q87.19 15.01 87.19 14.17L87.19 14.17L87.19 14.17Q87.19 13.62 87.53 13.23L87.53 13.23L87.53 13.23Q87.86 12.84 88.45 12.67L88.45 12.67L88.45 12.67Q88.03 12.49 87.79 12.17L87.79 12.17L87.79 12.17Q87.54 11.84 87.54 11.45L87.54 11.45L87.54 11.45Q87.54 10.95 87.87 10.60L87.87 10.60L87.87 10.60Q88.20 10.25 88.76 10.09L88.76 10.09L88.76 10.09Q88.19 9.80 87.88 9.30L87.88 9.30L87.88 9.30Q87.57 8.81 87.57 8.16L87.57 8.16L87.57 8.16Q87.57 7.13 88.35 6.50L88.35 6.50L88.35 6.50Q89.12 5.88 90.41 5.88L90.41 5.88L90.41 5.88Q91.31 5.88 91.99 6.20L91.99 6.20L91.99 6.20Q92.08 5.53 92.55 5.13L92.55 5.13L92.55 5.13Q93.03 4.73 93.74 4.73L93.74 4.73L93.91 5.35L93.91 5.35Q93.25 5.35 92.88 5.64L92.88 5.64L92.88 5.64Q92.50 5.94 92.44 6.48L92.44 6.48L92.44 6.48Q93.24 7.13 93.24 8.16L93.24 8.16L93.24 8.16Q93.24 9.20 92.46 9.83L92.46 9.83L92.46 9.83Q91.69 10.46 90.41 10.46L90.41 10.46L90.41 10.46Q89.98 10.46 89.46 10.36L89.46 10.36L89.46 10.36Q88.87 10.43 88.54 10.70L88.54 10.70L88.54 10.70Q88.21 10.98 88.21 11.35L88.21 11.35L88.21 11.35Q88.21 11.80 88.59 12.05L88.59 12.05L88.59 12.05Q88.97 12.31 89.73 12.31L89.73 12.31L91.53 12.31ZM88.27 8.16L88.27 8.16Q88.27 8.95 88.84 9.41L88.84 9.41L88.84 9.41Q89.42 9.87 90.41 9.87L90.41 9.87L90.41 9.87Q91.39 9.87 91.97 9.41L91.97 9.41L91.97 9.41Q92.54 8.95 92.54 8.16L92.54 8.16L92.54 8.16Q92.54 7.38 91.97 6.92L91.97 6.92L91.97 6.92Q91.39 6.47 90.41 6.47L90.41 6.47L90.41 6.47Q89.43 6.47 88.85 6.92L88.85 6.92L88.85 6.92Q88.27 7.38 88.27 8.16L88.27 8.16ZM90.52 15.44L90.52 15.44Q91.71 15.44 92.44 15.03L92.44 15.03L92.44 15.03Q93.16 14.62 93.16 13.99L93.16 13.99L93.16 13.99Q93.16 13.48 92.70 13.20L92.70 13.20L92.70 13.20Q92.25 12.91 91.38 12.91L91.38 12.91L89.57 12.91L89.57 12.91Q88.77 12.91 88.31 13.22L88.31 13.22L88.31 13.22Q87.84 13.54 87.84 14.06L87.84 14.06L87.84 14.06Q87.84 14.70 88.54 15.07L88.54 15.07L88.54 15.07Q89.24 15.44 90.52 15.44L90.52 15.44ZM104.44 13.16L104.44 13.16Q103.38 13.16 102.59 12.74L102.59 12.74L102.59 12.74Q101.81 12.32 101.51 11.52L101.51 11.52L102.09 11.14L102.09 11.14Q102.30 11.84 102.94 12.19L102.94 12.19L102.94 12.19Q103.59 12.54 104.52 12.54L104.52 12.54L104.52 12.54Q105.48 12.54 106.02 12.18L106.02 12.18L106.02 12.18Q106.55 11.82 106.55 11.21L106.55 11.21L106.55 11.21Q106.55 10.70 106.09 10.39L106.09 10.39L106.09 10.39Q105.63 10.08 104.47 9.87L104.47 9.87L104.47 9.87Q103.00 9.60 102.40 9.16L102.40 9.16L102.40 9.16Q101.79 8.71 101.79 7.88L101.79 7.88L101.79 7.88Q101.79 7.34 102.13 6.87L102.13 6.87L102.13 6.87Q102.47 6.41 103.08 6.15L103.08 6.15L103.08 6.15Q103.70 5.88 104.48 5.88L104.48 5.88L104.48 5.88Q105.59 5.88 106.25 6.30L106.25 6.30L106.25 6.30Q106.92 6.72 107.17 7.59L107.17 7.59L106.57 7.94L106.57 7.94Q106.18 6.50 104.48 6.50L104.48 6.50L104.48 6.50Q103.92 6.50 103.47 6.68L103.47 6.68L103.47 6.68Q103.01 6.86 102.75 7.16L102.75 7.16L102.75 7.16Q102.49 7.46 102.49 7.81L102.49 7.81L102.49 7.81Q102.49 8.39 102.97 8.71L102.97 8.71L102.97 8.71Q103.45 9.03 104.65 9.24L104.65 9.24L104.65 9.24Q106.08 9.48 106.67 9.93L106.67 9.93L106.67 9.93Q107.25 10.37 107.25 11.19L107.25 11.19L107.25 11.19Q107.25 12.08 106.49 12.62L106.49 12.62L106.49 12.62Q105.73 13.16 104.44 13.16L104.44 13.16ZM119.50 5.88L119.50 5.88Q120.99 5.88 121.85 6.85L121.85 6.85L121.85 6.85Q122.71 7.81 122.71 9.52L122.71 9.52L122.71 9.52Q122.71 11.23 121.85 12.19L121.85 12.19L121.85 12.19Q120.99 13.16 119.50 13.16L119.50 13.16L119.50 13.16Q118.57 13.16 117.88 12.71L117.88 12.71L117.88 12.71Q117.19 12.25 116.90 11.45L116.90 11.45L116.86 13.02L116.23 13.02L116.23 2.80L116.93 2.80L116.93 7.50L116.93 7.50Q117.25 6.75 117.93 6.31L117.93 6.31L117.93 6.31Q118.61 5.88 119.50 5.88L119.50 5.88ZM119.42 12.54L119.42 12.54Q120.64 12.54 121.32 11.74L121.32 11.74L121.32 11.74Q122.01 10.93 122.01 9.52L122.01 9.52L122.01 9.52Q122.01 8.11 121.32 7.30L121.32 7.30L121.32 7.30Q120.64 6.50 119.42 6.50L119.42 6.50L119.42 6.50Q118.33 6.50 117.66 7.24L117.66 7.24L117.66 7.24Q116.98 7.98 116.93 9.27L116.93 9.27L116.93 9.77L116.93 9.77Q116.98 11.06 117.66 11.80L117.66 11.80L117.66 11.80Q118.33 12.54 119.42 12.54L119.42 12.54ZM136.86 6.02L137.56 6.02L137.56 13.02L136.93 13.02L136.91 11.63L136.91 11.63Q136.56 12.38 135.86 12.77L135.86 12.77L135.86 12.77Q135.16 13.16 134.20 13.16L134.20 13.16L134.20 13.16Q133.06 13.16 132.37 12.52L132.37 12.52L132.37 12.52Q131.68 11.89 131.68 10.64L131.68 10.64L131.68 6.02L132.38 6.02L132.38 10.47L132.38 10.47Q132.38 12.54 134.32 12.54L134.32 12.54L134.32 12.54Q135.09 12.54 135.67 12.21L135.67 12.21L135.67 12.21Q136.25 11.87 136.56 11.30L136.56 11.30L136.56 11.30Q136.86 10.72 136.86 10.04L136.86 10.04L136.86 6.02ZM133.31 3.63L133.31 3.63Q133.56 3.63 133.71 3.79L133.71 3.79L133.71 3.79Q133.87 3.95 133.87 4.20L133.87 4.20L133.87 4.20Q133.87 4.45 133.71 4.61L133.71 4.61L133.71 4.61Q133.56 4.76 133.31 4.76L133.31 4.76L133.31 4.76Q133.06 4.76 132.89 4.61L132.89 4.61L132.89 4.61Q132.73 4.45 132.73 4.20L132.73 4.20L132.73 4.20Q132.73 3.95 132.89 3.79L132.89 3.79L132.89 3.79Q133.06 3.63 133.31 3.63L133.31 3.63ZM135.95 3.63L135.95 3.63Q136.21 3.63 136.37 3.79L136.37 3.79L136.37 3.79Q136.53 3.95 136.53 4.20L136.53 4.20L136.53 4.20Q136.53 4.45 136.37 4.61L136.37 4.61L136.37 4.61Q136.21 4.76 135.95 4.76L135.95 4.76L135.95 4.76Q135.70 4.76 135.54 4.61L135.54 4.61L135.54 4.61Q135.38 4.45 135.38 4.20L135.38 4.20L135.38 4.20Q135.38 3.95 135.54 3.79L135.54 3.79L135.54 3.79Q135.70 3.63 135.95 3.63L135.95 3.63ZM150.00 5.88L150.00 5.88Q150.56 5.88 150.88 6.12L150.88 6.12L150.70 6.78L150.70 6.78Q150.37 6.52 149.80 6.52L149.80 6.52L149.80 6.52Q149.27 6.52 148.80 6.85L148.80 6.85L148.80 6.85Q148.33 7.18 148.04 7.78L148.04 7.78L148.04 7.78Q147.76 8.37 147.76 9.10L147.76 9.10L147.76 13.02L147.06 13.02L147.06 6.02L147.64 6.02L147.73 7.45L147.73 7.45Q148.02 6.71 148.60 6.29L148.60 6.29L148.60 6.29Q149.18 5.88 150.00 5.88L150.00 5.88ZM161.90 5.88L161.90 5.88Q163.45 5.88 164.34 6.85L164.34 6.85L164.34 6.85Q165.23 7.83 165.23 9.52L165.23 9.52L165.23 9.52Q165.23 11.21 164.34 12.19L164.34 12.19L164.34 12.19Q163.45 13.16 161.90 13.16L161.90 13.16L161.90 13.16Q160.34 13.16 159.45 12.19L159.45 12.19L159.45 12.19Q158.56 11.21 158.56 9.52L158.56 9.52L158.56 9.52Q158.56 7.83 159.45 6.85L159.45 6.85L159.45 6.85Q160.34 5.88 161.90 5.88L161.90 5.88ZM161.90 6.48L161.90 6.48Q160.66 6.48 159.96 7.29L159.96 7.29L159.96 7.29Q159.26 8.11 159.26 9.52L159.26 9.52L159.26 9.52Q159.26 10.93 159.96 11.75L159.96 11.75L159.96 11.75Q160.66 12.56 161.90 12.56L161.90 12.56L161.90 12.56Q163.13 12.56 163.83 11.75L163.83 11.75L163.83 11.75Q164.53 10.93 164.53 9.52L164.53 9.52L164.53 9.52Q164.53 8.11 163.83 7.29L163.83 7.29L163.83 7.29Q163.13 6.48 161.90 6.48L161.90 6.48Z"></path></g></svg>