<svg data-v-423bf9ae="" xmlns="http://www.w3.org/2000/svg" viewBox="0 0 271.31231601992414 60" class="font"><!----><!----><!----><g data-v-423bf9ae="" id="510db722-961c-4fa5-9b30-5078288827ab" fill="black" transform="matrix(6.1037640351658435,0,0,6.1037640351658435,-3.8453738559781527,-21.97354946765958)"><path d="M10.44 8.85L5.49 8.85L5.49 9.70L9.35 9.70C9.07 10.53 8.58 11.19 7.88 11.69C7.18 12.18 6.39 12.43 5.53 12.43C4.44 12.43 3.52 12.05 2.75 11.27C1.99 10.50 1.61 9.58 1.61 8.50C1.61 7.42 1.99 6.49 2.76 5.73C3.52 4.96 4.45 4.58 5.53 4.58C6.35 4.58 7.09 4.81 7.75 5.27C8.41 5.73 8.90 6.34 9.20 7.11L10.23 7.11C9.92 6.06 9.32 5.21 8.45 4.57C7.58 3.92 6.57 3.60 5.43 3.60C4.83 3.60 4.22 3.73 3.63 3.98C3.03 4.24 2.51 4.59 2.06 5.03C1.62 5.48 1.27 6.00 1.02 6.59C0.76 7.19 0.63 7.83 0.63 8.51C0.63 9.18 0.76 9.82 1.02 10.42C1.27 11.01 1.62 11.53 2.06 11.98C2.51 12.42 3.03 12.77 3.63 13.03C4.22 13.28 4.86 13.41 5.53 13.41C6.68 13.41 7.72 13.04 8.65 12.29C9.58 11.55 10.14 10.59 10.35 9.44ZM15.29 8.41L15.29 7.14C15.09 7.06 14.89 7.01 14.67 7.01C13.98 7.01 13.47 7.40 13.15 8.16L13.10 8.41L13.10 7.14L12.12 7.14L12.12 13.30L13.10 13.30L13.10 10.22C13.10 9.71 13.22 9.26 13.45 8.86C13.58 8.64 13.73 8.47 13.91 8.32C14.09 8.18 14.31 8.11 14.57 8.11C14.82 8.11 15.06 8.21 15.29 8.41ZM20.73 12.24L20.73 13.30L21.71 13.30L21.71 7.14L20.73 7.14L20.73 9.72C20.73 10.57 20.57 11.24 20.26 11.72C19.94 12.21 19.40 12.45 18.63 12.45C18.21 12.45 17.91 12.30 17.73 12.02C17.55 11.73 17.46 11.39 17.46 10.99L17.46 7.14L16.48 7.14L16.48 10.99C16.48 11.70 16.67 12.29 17.06 12.74C17.45 13.20 17.99 13.43 18.68 13.43C19.59 13.43 20.27 13.03 20.73 12.24ZM20.73 5.00C20.61 4.88 20.46 4.82 20.29 4.82C20.11 4.82 19.96 4.88 19.84 5.00C19.73 5.12 19.67 5.27 19.67 5.44C19.67 5.61 19.73 5.76 19.84 5.88C19.96 6.00 20.11 6.06 20.29 6.06C20.46 6.06 20.61 6.00 20.73 5.88C20.86 5.76 20.92 5.61 20.92 5.44C20.92 5.27 20.86 5.12 20.73 5.00ZM18.19 5.00C18.06 4.88 17.92 4.82 17.74 4.82C17.56 4.82 17.41 4.88 17.30 5.00C17.18 5.12 17.12 5.27 17.12 5.44C17.12 5.61 17.18 5.76 17.30 5.88C17.41 6.00 17.56 6.06 17.74 6.06C17.92 6.06 18.06 6.00 18.19 5.88C18.31 5.76 18.37 5.61 18.37 5.44C18.37 5.27 18.31 5.12 18.19 5.00ZM31.42 13.27L32.40 13.27L32.40 9.42C32.40 8.73 32.23 8.16 31.89 7.71C31.71 7.49 31.50 7.31 31.23 7.18C30.97 7.04 30.63 6.97 30.20 6.97C29.77 6.97 29.39 7.09 29.07 7.32C28.78 7.53 28.54 7.81 28.35 8.14C28.28 7.99 28.19 7.85 28.09 7.71C27.92 7.49 27.70 7.31 27.44 7.18C27.18 7.04 26.83 6.97 26.40 6.97C25.97 6.97 25.60 7.09 25.28 7.32C25.00 7.52 24.77 7.78 24.58 8.09L24.58 7.11L23.60 7.11L23.60 13.27L24.58 13.27L24.58 10.12C24.64 9.62 24.76 9.20 24.96 8.85C25.11 8.59 25.31 8.37 25.56 8.20C25.82 8.04 26.09 7.95 26.38 7.95C26.67 7.95 26.88 8.00 27.02 8.08C27.42 8.34 27.62 8.78 27.62 9.42L27.62 13.27L28.60 13.27L28.60 9.42C28.60 9.34 28.60 9.26 28.60 9.19C28.64 9.07 28.70 8.95 28.76 8.85C28.91 8.59 29.11 8.37 29.36 8.20C29.61 8.04 29.88 7.95 30.17 7.95C30.46 7.95 30.67 8.00 30.81 8.08C31.22 8.34 31.42 8.78 31.42 9.42ZM40.31 10.08C40.31 9.23 39.98 8.50 39.33 7.88C38.70 7.28 37.95 6.97 37.09 6.97C36.20 6.97 35.44 7.29 34.81 7.92C34.18 8.55 33.87 9.31 33.87 10.19C33.87 11.08 34.18 11.84 34.81 12.46C35.11 12.75 35.45 12.98 35.83 13.15C36.22 13.31 36.69 13.40 37.23 13.40C37.78 13.40 38.32 13.23 38.84 12.89C39.37 12.55 39.76 12.08 40.03 11.49L38.91 11.49C38.69 11.78 38.42 12.01 38.10 12.17C37.78 12.34 37.44 12.42 37.09 12.42C36.56 12.42 36.08 12.25 35.66 11.90C35.24 11.56 34.98 11.13 34.89 10.60L40.31 10.60ZM39.27 9.76L34.90 9.76C34.96 9.50 35.06 9.26 35.20 9.04C35.66 8.31 36.29 7.95 37.09 7.95C37.61 7.95 38.07 8.12 38.48 8.46C38.89 8.80 39.16 9.23 39.27 9.76ZM45.08 8.41L45.08 7.14C44.88 7.06 44.68 7.01 44.46 7.01C43.77 7.01 43.27 7.40 42.94 8.16L42.90 8.41L42.90 7.14L41.92 7.14L41.92 13.30L42.90 13.30L42.90 10.22C42.90 9.71 43.01 9.26 43.25 8.86C43.37 8.64 43.52 8.47 43.70 8.32C43.88 8.18 44.10 8.11 44.36 8.11C44.61 8.11 44.85 8.21 45.08 8.41Z"></path></g><!----><!----></svg>